# xmcd
#
# Track frame offsets:
#	183
#	9403
#	22753
#	37850
#	49443
#	65085
#	75918
#	88128
#	100110
#	117510
#	129468
#	141713
#	158188
#	170625
#	182425
#	193673
#	205540
#	219528
#	232280
#	243728
#	257020
#	270840
#	283515
#	298158
#
# Disc length: 4214 seconds
#
# Revision: 1
# Processed by: cddbd v1.5.2PL0 Copyright (c) Steve Scherf et al.
# Submitted via: audiograbber 1.83.01
#
DISCID=5e107418
DTITLE=Various Artist - Country Music's Golden Hitparade [CD 1 of 5)
DYEAR=1989
DGENRE=Country
TTITLE0=Jim Reeves - I Won't Forget You
TTITLE1=Hank Williams - Hey Good Lookin'
TTITLE2=Slim Whitman - Indian Lova Call
TTITLE3=Johnny Horton - The Battle of New Orleans
TTITLE4=Helen Reddy - Angie Baby
TTITLE5=The Everly Brothers - Bye Bye Love
TTITLE6=Frankie Laine - High Noon
TTITLE7=Elvis Presley - I Want You, I Need You, I Love You
TTITLE8=Dr. Hook - Sylvia's Mother
TTITLE9=Johnny Cash - Ring of Fire
TTITLE10=Eddy Arnold - Make the World Go Away
TTITLE11=Anne Murray - You Needed Me
TTITLE12=Hank Wiliams - Your Cheatin' Heart
TTITLE13=Ray Price - Crazy Arms
TTITLE14=Marty Robbins - Singing the Blues
TTITLE15=Bobby Goldsboro - Watching Scotty Grow
TTITLE16=Glen Campbell - Wichita Lineman
TTITLE17=Dr. Hook - Only Sixteen
TTITLE18=Elvis Presley - Mama Liked the Roses
TTITLE19=Crystal Gayle - Talking in Your Sleep
TTITLE20=Ray Price - City Lights
TTITLE21=Patsy Cline - Crazy
TTITLE22=B. J. Thomas - I'm so Lonesome I Could Cry
TTITLE23=Rita Coolidge - (Your Love Has Lifted Me) Higher and Higher
EXTD=
EXTT0=
EXTT1=
EXTT2=
EXTT3=
EXTT4=
EXTT5=
EXTT6=
EXTT7=
EXTT8=
EXTT9=
EXTT10=
EXTT11=
EXTT12=
EXTT13=
EXTT14=
EXTT15=
EXTT16=
EXTT17=
EXTT18=
EXTT19=
EXTT20=
EXTT21=
EXTT22=
EXTT23=
PLAYORDER=
